<svg xmlns="http://www.w3.org/2000/svg" width="538.751" height="97.492" viewBox="0 0 538.751 97.492"><defs><style>.a{fill:#fff;}</style></defs><g transform="translate(-272.885 -40.394)"><path class="a" d="M41.8,48.784,25.411,25.249l5.39,5.228L49.339,48.784,4.807,92.763,0,97.492Zm-.313,28.859,18.541-18.31L78.95,78.021l4.789,4.748L60.024,66.782,36.191,82.967ZM89.223,67.071,70.707,48.784l44.6-44.048L120.125,0,78.248,48.784,94.606,72.292Zm304.337-4.833c-.575,0-.84-.256-.84-.769V37.28H378.235a.691.691,0,0,1-.8-.769V33.092a.691.691,0,0,1,.8-.769h34.493c.574,0,.839.256.839.769v3.419c0,.513-.265.769-.839.769H398.242V61.469a.691.691,0,0,1-.8.769Zm-39.954,0c-8.878,0-12.234-3.077-12.234-11.283v-7.35c0-8.205,3.357-11.282,12.234-11.282h19.388a.691.691,0,0,1,.795.769v3.29c0,.556-.265.812-.795.812H353.65c-5.256,0-6.934,1.624-6.934,6.8v.982H372.73c.53,0,.795.214.795.769v2.735a.691.691,0,0,1-.795.77H346.716v1.325c0,5.171,1.678,6.794,6.934,6.794h19.344a.7.7,0,0,1,.795.812v3.291a.691.691,0,0,1-.795.769Zm-24.715,0c-2.21,0-2.827-.384-4.285-2.094L305.351,37.708a.724.724,0,0,0-.618-.3h-.441c-.265,0-.354.128-.354.427V61.469c0,.513-.263.769-.838.769h-3.754a.691.691,0,0,1-.8-.769V36.084c0-2.907,1.1-3.761,3.357-3.761h3.224c2.341,0,2.87.47,4.284,2.094l19.213,22.437a.725.725,0,0,0,.618.3h.442c.265,0,.4-.128.4-.427V33.092c0-.513.222-.769.8-.769h3.754a.691.691,0,0,1,.8.769V58.478c0,2.906-1.1,3.76-3.4,3.76Zm-56.075,0c-8.877,0-12.234-3.077-12.234-11.283v-7.35c0-8.205,3.358-11.282,12.234-11.282h19.389a.691.691,0,0,1,.795.769v3.29c0,.556-.265.812-.795.812H272.862c-5.257,0-6.934,1.624-6.934,6.8v.982h26.013c.53,0,.795.214.795.769v2.735a.691.691,0,0,1-.795.77H265.928v1.325c0,5.171,1.677,6.794,6.934,6.794h19.344a.7.7,0,0,1,.795.812v3.291a.691.691,0,0,1-.795.769Zm-19.594,0c-.663,0-.839-.128-1.1-.47l-8.392-10.3c-1.458-1.752-2.694-2.351-6.006-2.351H230.3V61.469a.691.691,0,0,1-.795.769H225.62a.691.691,0,0,1-.8-.769V33.092a.691.691,0,0,1,.8-.769h3.886a.691.691,0,0,1,.795.769V45.058h6.978c3.446,0,4.416-.341,5.962-2.308l7.774-9.957c.264-.342.441-.47,1.1-.47h4.416a.544.544,0,0,1,.486.9l-8.612,10.727a13.084,13.084,0,0,1-3.091,3.077,11.657,11.657,0,0,1,3.666,3.12l9.231,11.112c.177.3.221.982-.53.982Zm-37.479,0a.9.9,0,0,1-.883-.47l-3.489-6.026H188.981l-3.446,6.026a.825.825,0,0,1-.883.47h-4.637c-.575,0-.707-.342-.442-.854l15.37-26.369c1.236-2.136,2.34-2.691,3.886-2.691h2.164c1.9,0,3,.555,4.24,2.691l15.457,26.369c.31.512.176.854-.441.854ZM199.491,37.58l-8.17,14.1h17.667l-8.172-14.1a.546.546,0,0,0-.529-.3h-.265A.547.547,0,0,0,199.491,37.58ZM163.157,62.238c-.574,0-.838-.256-.838-.769V37.28H147.831a.691.691,0,0,1-.795-.769V33.092a.691.691,0,0,1,.795-.769h34.494c.574,0,.839.256.839.769v3.419c0,.513-.265.769-.839.769H167.838V61.469a.691.691,0,0,1-.795.769Zm-51.835,0a.691.691,0,0,1-.795-.769V58.178a.7.7,0,0,1,.795-.812H135c2.119,0,2.914-1.153,2.914-2.991V52.238c0-1.966-.884-2.991-2.871-2.991H117.814c-4.858,0-7.332-2.521-7.332-7.009v-3.12c0-4.06,2.252-6.794,7.375-6.794h23.63a.691.691,0,0,1,.795.769v3.29c0,.556-.265.812-.795.812H118.874c-2.12,0-2.915,1.155-2.915,2.991v1.8c0,1.966.885,2.991,2.915,2.991H136.1c4.858,0,7.331,2.522,7.331,7.009v3.5c0,4.018-2.253,6.752-7.42,6.752Zm-70.54-43-4.789-4.747,24.03,16.3L83.855,14.6l-5.3,5.323L60.02,38.236Z" transform="translate(272.885 40.394)"/><rect class="a" width="2.918" height="34.042" transform="translate(705.62 71.314)"/><path class="a" d="M2.552,18.212a.912.912,0,0,1-.7-.286,1.029,1.029,0,0,1-.264-.726V-11.544a1.091,1.091,0,0,1,.264-.77.912.912,0,0,1,.7-.286H12.5q6.646,0,9.6,2.971T25.133-.672q.044,1.276.044,3.433t-.044,3.477a16.64,16.64,0,0,1-1.343,6.8,8.073,8.073,0,0,1-3.939,3.9,16.765,16.765,0,0,1-7.131,1.276ZM12.5,14.558a11.688,11.688,0,0,0,4.908-.858,5.238,5.238,0,0,0,2.641-2.685,13.32,13.32,0,0,0,.9-4.952q.088-2.641.088-3.3,0-.7-.088-3.257-.088-4.4-2.091-6.448T12.28-8.991H5.722V14.558Zm20.336,3.653a.912.912,0,0,1-.7-.286,1.029,1.029,0,0,1-.264-.726V-11.544a1.091,1.091,0,0,1,.264-.77.912.912,0,0,1,.7-.286H50.927a1.041,1.041,0,0,1,.77.286,1.041,1.041,0,0,1,.286.77v1.585a.912.912,0,0,1-.286.7,1.091,1.091,0,0,1-.77.264H35.917V.825H49.958a1.041,1.041,0,0,1,.77.286,1.041,1.041,0,0,1,.286.77v1.5a.984.984,0,0,1-.286.726,1.041,1.041,0,0,1-.77.286H35.917V14.558H51.279a.986.986,0,0,1,1.056,1.056V17.2a.948.948,0,0,1-.308.726,1.06,1.06,0,0,1-.748.286Zm23.769,0a.9.9,0,0,1-.88-.88,1.012,1.012,0,0,1,.176-.572L65.98,2.542l-9.6-13.689a1.012,1.012,0,0,1-.176-.572.845.845,0,0,1,.264-.616.845.845,0,0,1,.616-.264H59.6a1.452,1.452,0,0,1,1.144.748L68.621-.716l7.791-11.136a1.3,1.3,0,0,1,1.144-.748h2.333a.845.845,0,0,1,.616.264.845.845,0,0,1,.264.616,1.011,1.011,0,0,1-.176.572L71.086,2.586l10.08,14.173a1.011,1.011,0,0,1,.176.572.815.815,0,0,1-.286.616.919.919,0,0,1-.638.264H77.909a1.383,1.383,0,0,1-1.144-.7L68.445,5.887,60.17,17.507a1.383,1.383,0,0,1-1.144.7Z" transform="translate(730.294 84.799)"/></g></svg>